<svg height="80pt" id="Layer_5" enable-background="new 0 0 64 64" viewBox="0 0 64 64" xmlns="http://www.w3.org/2000/svg"><path d="m28 25c-6.065 0-11 4.935-11 11s4.935 11 11 11 11-4.935 11-11-4.935-11-11-11zm0 20c-4.963 0-9-4.037-9-9 0-4.962 4.037-9 9-9s9 4.038 9 9c0 4.963-4.037 9-9 9z"/><path d="m6 19h2.531l4.292 5.15c.45.54 1.111.85 1.814.85 1.303 0 2.363-1.06 2.363-2.362v-3.638h5c2.757 0 5-2.243 5-5v-8c0-2.757-2.243-5-5-5h-16c-2.757 0-5 2.243-5 5v8c0 2.757 2.243 5 5 5zm-3-13c0-1.654 1.346-3 3-3h16c1.654 0 3 1.346 3 3v8c0 1.654-1.346 3-3 3h-7v5.638c-.001.307-.445.468-.64.231l-4.891-5.869h-3.469c-1.654 0-3-1.346-3-3z"/><path d="m13 15h8c1.103 0 2-.897 2-2v-6c0-1.103-.897-2-2-2h-8c-1.103 0-2 .897-2 2v6c0 1.103.897 2 2 2zm0-8h8v6h-8z"/><path d="m5 5h4v2h-4z"/><path d="m5 9h4v2h-4z"/><path d="m5 13h4v2h-4z"/><path d="m33 35h2v2h-2z"/><path d="m29 35h2v2h-2z"/><path d="m25 35h2v2h-2z"/><path d="m21 35h2v2h-2z"/><path d="m5.722 56.329h1.899v2h-1.899z" transform="matrix(.707 -.707 .707 .707 -38.583 21.509)"/><path d="m8.465 53.535h2v2h-2z" transform="matrix(.707 -.707 .707 .707 -35.79 22.666)"/><path d="m11.293 50.707h2v2h-2z" transform="matrix(.707 -.707 .707 .707 -32.962 23.837)"/><path d="m48 52c2.206 0 4-1.794 4-4s-1.794-4-4-4-4 1.794-4 4 1.794 4 4 4zm0-6c1.103 0 2 .897 2 2s-.897 2-2 2-2-.897-2-2 .897-2 2-2z"/><path d="m48 56c4.411 0 8-3.589 8-8s-3.589-8-8-8-8 3.589-8 8 3.589 8 8 8zm0-14c3.309 0 6 2.691 6 6s-2.691 6-6 6-6-2.691-6-6 2.691-6 6-6z"/><path d="m63 29c0-6.199-4.053-11.462-9.646-13.298 2.191-1.428 3.646-3.897 3.646-6.702 0-4.411-3.589-8-8-8s-8 3.589-8 8c0 2.8 1.449 5.264 3.633 6.694-3.757 1.229-6.867 4.016-8.476 7.735-2.351-1.531-5.149-2.429-8.157-2.429-8.271 0-15 6.729-15 15 0 2.748.755 5.318 2.051 7.535l-2.051 2.051-1-1-9.465 9.465c-.99.99-1.535 2.306-1.535 3.707 0 2.89 2.352 5.242 5.242 5.242 1.4 0 2.717-.545 3.707-1.535l9.465-9.465-1-1 2.051-2.051c2.217 1.296 4.787 2.051 7.535 2.051 1.755 0 3.433-.319 5-.875v1.659l2.794.687c.123.332.262.665.416.995l-1.492 2.465 5.352 5.352 2.465-1.492c.331.154.663.293.995.416l.686 2.793h7.568l.687-2.794c.332-.123.664-.262.995-.416l2.465 1.492 5.352-5.352-1.492-2.465c.154-.331.293-.663.416-.995l2.793-.686v-7.568l-2.794-.687c-.123-.332-.262-.664-.416-.995l1.492-2.465-5.352-5.352-2.465 1.492c-.331-.154-.663-.293-.995-.416l-.686-2.793h-7.568l-.687 2.794c-.183.068-.351.159-.531.235.001-.01.002-.019.002-.029 0-1.755-.319-3.433-.875-5h20.875zm-20-20c0-3.309 2.691-6 6-6s6 2.691 6 6-2.691 6-6 6-6-2.691-6-6zm-34.465 51.051c-.612.612-1.427.949-2.293.949-1.788 0-3.242-1.454-3.242-3.242 0-.866.337-1.681.949-2.293l8.051-8.051 4.586 4.586zm8.465-10.465-2.586-2.586 1.779-1.779c.754.964 1.622 1.831 2.586 2.586zm-2-13.586c0-7.168 5.832-13 13-13s13 5.832 13 13-5.832 13-13 13-13-5.832-13-13zm27.946 2.237c.573-.298 1.154-.541 1.725-.722l.536-.169.577-2.346h4.432l.577 2.347.536.169c.57.181 1.151.424 1.725.722l.498.259 2.074-1.255 3.133 3.133-1.255 2.074.259.498c.298.573.541 1.154.722 1.725l.169.536 2.346.576v4.432l-2.347.577-.169.536c-.181.57-.424 1.151-.722 1.725l-.259.498 1.255 2.074-3.133 3.133-2.074-1.255-.498.259c-.573.298-1.154.541-1.725.722l-.536.169-.576 2.346h-4.432l-.577-2.347-.536-.169c-.57-.181-1.151-.424-1.725-.722l-.498-.259-2.074 1.255-3.133-3.133 1.255-2.074-.259-.498c-.298-.572-.541-1.153-.723-1.727l-.17-.534-2.344-.576v-.959c4.104-2.176 7.068-6.2 7.805-10.957zm-1.69-9.237c-.874-1.648-2.048-3.108-3.446-4.321 1.78-4.614 6.2-7.679 11.19-7.679 6.617 0 12 5.383 12 12z"/></svg>