<svg xmlns="http://www.w3.org/2000/svg" viewBox="0 0 147.839 175.227">
  <defs>
    <style>
      .cls-1 {
        fill: #fff;
      }

      .cls-2, .cls-3, .cls-4 {
        fill: none;
        stroke: #17394c;
        stroke-linecap: round;
      }

      .cls-2, .cls-4 {
        stroke-linejoin: round;
      }

      .cls-2 {
        stroke-width: 5px;
      }

      .cls-3, .cls-4 {
        stroke-width: 3px;
      }
    </style>
  </defs>
  <g id="Group_731" data-name="Group 731" transform="translate(-753.988 -2460.44)">
    <ellipse id="Ellipse_729" data-name="Ellipse 729" class="cls-1" cx="73.919" cy="70.477" rx="73.919" ry="70.477" transform="translate(753.988 2460.44)"/>
    <path id="Path_678" data-name="Path 678" class="cls-2" d="M-12767.768-8995.244s10.9-.842,8.348-15.025,17.527-27.462,21.414-44.159-7.544-47.2-36.857-47.2-47.923,23.252-43.6,47.2,22.574,34.964,22.574,44.159.112,15.025,7.662,15.025,34.289,9.537,20.464,9.124-30.585-6.218-20.464,0,40.091,8.446,25,8.629-35.57-1.483-25,2.224,34.113,1.707,25,5.709-8.5,8.029-14.1,7.575a8.173,8.173,0,0,1-7.157-5.132" transform="translate(13604.536 11595.129)"/>
    <line id="Line_351" data-name="Line 351" class="cls-3" y1="8.127" transform="translate(827.904 2471.219)"/>
    <line id="Line_352" data-name="Line 352" class="cls-3" x1="6.603" y1="6.603" transform="translate(782.699 2486.964)"/>
    <line id="Line_353" data-name="Line 353" class="cls-3" y1="6.603" x2="6.603" transform="translate(867.014 2486.964)"/>
    <line id="Line_354" data-name="Line 354" class="cls-3" y1="0.526" x2="10.525" transform="translate(878.497 2528.815)"/>
    <line id="Line_355" data-name="Line 355" class="cls-3" x2="10.159" y2="1.016" transform="translate(764.921 2525.058)"/>
    <line id="Line_356" data-name="Line 356" class="cls-3" y1="4.063" x2="7.111" transform="translate(773.556 2559.089)"/>
    <line id="Line_357" data-name="Line 357" class="cls-3" x1="7.111" y1="5.079" transform="translate(869.046 2559.089)"/>
    <path id="Path_679" data-name="Path 679" class="cls-4" d="M-12755.023-8958.6l-6.937-49.84.982,7.131,4.646-3.983,4,7.322,3.955-6.129,4.113,6.129,4.334-4.388,3.408,1.049,1.514-7.131-7.561,37.847" transform="translate(13576.425 11541.654)"/>
  </g>
</svg>
