<svg height="80pt" viewBox="-36 0 496 496" width="496pt" xmlns="http://www.w3.org/2000/svg">
	<path d="m402.710938 156.105469-33.589844-17.914063 47.566406-47.566406c4.71875-4.714844 7.3125-10.984375 7.3125-17.65625 0-13.769531-11.199219-24.96875-24.96875-24.96875-6.574219 0-13.007812 2.664062-17.65625 7.3125l-29.375 29.375v-84.6875h-352v496h352v-56h64v-64h-16v-33.375c0-3.304688.664062-6.519531 1.960938-9.5625l18.792968-43.832031c2.148438-5.046875 3.246094-10.382813 3.246094-15.855469v-81.757812c0-6.226563-1.472656-12.457032-4.246094-18.007813-3.761718-7.503906-9.648437-13.5625-17.042968-17.503906zm-10.023438-89.480469c1.671875-1.664062 3.984375-2.625 6.34375-2.625 4.945312 0 8.96875 4.023438 8.96875 8.96875 0 2.398438-.929688 4.648438-2.625 6.34375l-86.984375 86.984375c-3.933594-4.648437-8.789063-8.464844-14.4375-10.9375zm-66.40625 114.40625 3.292969-3.296875 34 17c2.730469 1.363281 4.425781 4.105469 4.425781 7.152344 0 8.496093-1.359375 16.90625-4.046875 24.96875l-6.242187 18.71875c-2.078126 6.242187-7.894532 10.425781-14.472657 10.425781-8.40625 0-15.238281-6.839844-15.238281-15.246094v-48.753906c0-3.832031-.710938-7.457031-1.71875-10.96875zm-54.28125 31.65625-36.097656 36.089844-16.910156 4.222656 4.230468-16.910156 48.777344-48.777344zm-136 98.90625c-40.367188-4.027344-72-38.1875-72-79.59375s31.632812-75.566406 72-79.59375zm69.753906-71.59375h-53.753906v-87.671875c33.839844 2.792969 63.609375 23.207031 78.433594 53.929687l-21.65625 21.652344zm-53.753906 16h49.753906l-4.746094 19 41.480469-10.375c-7.457031 42.464844-42.847656 75.421875-86.488281 79.039062zm142.425781-113.734375-16.226562-8.113281c-3.824219-1.914063-6.199219-5.753906-6.199219-10.015625v-.9375c0-6.175781 5.023438-11.199219 11.199219-11.199219 1.832031 0 3.648437.457031 5.265625 1.320312l22.757812 12.136719zm105.574219 281.734375h-48c-8.824219 0-16 7.175781-16 16v40h-320v-464h320v84.6875l-12.945312 12.945312-27.0625-14.433593c-3.929688-2.09375-8.351563-3.199219-12.792969-3.199219-15 0-27.199219 12.199219-27.199219 27.199219v.9375c0 10.367187 5.769531 19.6875 15.039062 24.335937l10.191407 5.09375c-4.300781 2.035156-7.542969 5.90625-8.710938 10.617188l-30.222656 30.222656c-19.496094-35.804688-56.882813-58.40625-98.296875-58.40625h-8v.40625c-49.199219 4.089844-88 45.363281-88 95.59375s38.800781 91.503906 88 95.59375v32.40625h8c60.574219 0 109.953125-48.375 111.824219-108.503906l16.175781-16.183594v36.113281c0 6.988281 1.832031 13.894531 5.304688 19.980469l23.503906 41.113281c2.078125 3.671875 3.191406 7.832031 3.191406 12.046875v31.433594h-16v64h32v-16h-16v-32h96zm8-150.625c0 3.304688-.664062 6.519531-1.960938 9.5625l-18.792968 43.832031c-2.148438 5.046875-3.246094 10.382813-3.246094 15.855469v33.375h-64v-31.433594c0-6.992187-1.832031-13.894531-5.304688-19.980468l-23.503906-41.113282c-2.078125-3.664062-3.191406-7.824218-3.191406-12.039062v-103.433594c13.230469 0 24 10.769531 24 24v48.753906c0 17.230469 14.015625 31.246094 31.238281 31.246094 13.472657 0 25.386719-8.585938 29.640625-21.359375l6.25-18.71875c3.230469-9.714844 4.871094-19.816406 4.871094-30.035156 0-9.152344-5.089844-17.367188-13.265625-21.460938l-29.230469-14.617187 15.792969-15.792969 37.878906 20.199219c4.457031 2.378906 8 6.023437 10.265625 10.554687 1.679688 3.34375 2.558594 7.09375 2.558594 10.847657zm0 0"/><path d="m168 280h16v16h-16zm0 0"/><path d="m200 280h16v16h-16zm0 0"/><path d="m80 208h40v16h-40zm0 0"/><path d="m80 240h40v16h-40zm0 0"/><path d="m144 408h-16v40h-16v-56h-16v56h-16v-80h-16v80h-16v-104h-16v120h128v-16h-16zm0 0"/><path d="m232 376h12.6875l-20.6875 20.6875-16-16-45.65625 45.65625 11.3125 11.3125 34.34375-34.34375 16 16 32-32v12.6875h16v-40h-40zm0 0"/><path d="m32 32h16v16h-16zm0 0"/><path d="m64 32h112v16h-112zm0 0"/><path d="m32 64h16v16h-16zm0 0"/><path d="m64 64h112v16h-112zm0 0"/><path d="m32 96h16v16h-16zm0 0"/><path d="m64 96h112v16h-112zm0 0"/><path d="m240 32h16v16h-16zm0 0"/><path d="m272 32h16v16h-16zm0 0"/><path d="m304 32h16v16h-16zm0 0"/>

<defs>
    <style>
      .cls-1 {
        fill: #fff;
      }

      .cls-2, .cls-3 {
        fill: none;
        stroke: #17394c;
        stroke-linecap: round;
      }

      .cls-2 {
        stroke-width: 5px;
      }

      .cls-3 {
        stroke-linejoin: round;
        stroke-width: 3px;
        fill-rule: evenodd;
      }
    </style>
  </defs>

</svg>