<svg xmlns="http://www.w3.org/2000/svg" viewBox="0 0 24.85 21.963">
  <defs>
    <style>
      .cls-1 {
        opacity: 0.145;
      }

      .cls-2 {
        fill: none;
        fill-rule: evenodd;
      }

      .cls-3, .cls-4 {
        stroke: none;
      }

      .cls-4 {
        fill: #17394c;
      }
    </style>
  </defs>
  <g id="Group_615" data-name="Group 615" class="cls-1">
    <g id="Path_14" data-name="Path 14" class="cls-2" transform="translate(-15.963 -23.079)">
      <path class="cls-3" d="M25.049,44.068c2.324,1.735,6.663,1.085,7.221-1.426a2.464,2.464,0,0,0-.814-2.6,1.462,1.462,0,0,1,.345-2.452c1.467-.655,4.25-.341,4.931-3.1.527-2.045-1.673-3.967-6.446-3.812-5.93.228-9.3,2.634-8.584,6.911A10.036,10.036,0,0,0,25.049,44.068Z"/>
      <path class="cls-4" d="M 28.24885940551758 45.04183959960938 L 28.24885940551758 43.04183959960938 C 29.33534622192383 43.04183959960938 30.19291496276855 42.62092971801758 30.3104248046875 42.23351287841797 C 30.36569023132324 41.89199066162109 30.31406021118164 41.74283981323242 30.29618835449219 41.70409774780273 C 30.28380966186523 41.67726898193359 30.26605796813965 41.65267944335938 30.21587944030762 41.6130485534668 C 29.46258926391602 41.01805877685547 28.78714942932129 39.71823883056641 28.95368957519531 38.3851203918457 C 29.09771919250488 37.23214721679688 29.83809852600098 36.27716827392578 30.9849796295166 35.76506042480469 C 31.55583953857422 35.51015853881836 32.15546035766602 35.37767791748047 32.7353401184082 35.24956893920898 C 34.30886840820313 34.90192794799805 34.61615753173828 34.7169189453125 34.79032897949219 34.0123176574707 L 34.79266738891602 34.00283050537109 L 34.79510879516602 33.99337005615234 C 34.81703948974609 33.90824890136719 34.82550048828125 33.84964752197266 34.72744750976563 33.72314834594727 C 34.35150909423828 33.23809814453125 33.10224914550781 32.67166900634766 30.81872940063477 32.67166900634766 C 30.6681079864502 32.67166900634766 30.51268577575684 32.6742057800293 30.3566780090332 32.6792106628418 C 27.3585033416748 32.79552459716797 25.17299652099609 33.51588821411133 24.20202827453613 34.70784759521484 C 23.66945838928223 35.36162948608398 23.49687957763672 36.19725036621094 23.67441940307617 37.26247024536133 L 23.67573928833008 37.2703971862793 L 23.67699813842773 37.27833938598633 C 24.11065864562988 40.01583862304688 25.28690910339355 41.75207901000977 26.24513816833496 42.46566772460938 C 26.73550796508789 42.83180999755859 27.46579933166504 43.04180908203125 28.24875831604004 43.04183959960938 L 28.24885940551758 45.04183959960938 M 28.24868583679199 45.04183578491211 C 27.10309982299805 45.04179763793945 25.93066787719727 44.72686004638672 25.04856872558594 44.06822967529297 C 23.5920295715332 42.98357009887695 22.19746971130371 40.72127914428711 21.70162963867188 37.59127044677734 C 20.98884963989258 33.31462860107422 24.35629844665527 30.90880966186523 30.28592872619629 30.68044853210449 C 30.4674015045166 30.67455673217773 30.64470100402832 30.67167282104492 30.81872749328613 30.67167282104492 C 35.22135162353516 30.67167282104492 37.23869705200195 32.52467346191406 36.73188781738281 34.49224853515625 C 36.05010986328125 37.25038909912109 33.26728057861328 36.936279296875 31.80042839050293 37.59127044677734 C 30.33358955383301 38.24625015258789 31.07627868652344 39.7440185546875 31.45552825927734 40.0435676574707 C 31.83478927612305 40.3431282043457 32.55617904663086 41.07138824462891 32.2692985534668 42.64266967773438 C 31.92317390441895 44.20022583007813 30.12164115905762 45.04189300537109 28.24868583679199 45.04183578491211 Z"/>
    </g>
    <g id="Path_18" data-name="Path 18" class="cls-2" transform="translate(-37.135 -0.515)">
      <path class="cls-3" d="M50.985,3.238C50.83,6.461,53.4,6.8,54.7,4.229,56.687.293,51.2-1.225,50.985,3.238Z"/>
      <path class="cls-4" d="M 52.99567413330078 3.162547588348389 C 53.10890579223633 2.897876977920532 53.13642501831055 2.713318586349487 53.1359748840332 2.604993581771851 C 53.0844841003418 2.707375049591064 53.02449035644531 2.885749101638794 52.99567413330078 3.162547588348389 M 52.57590866088867 5.935327053070068 C 51.65991973876953 5.935213088989258 50.89870834350586 5.034170627593994 50.98508453369141 3.237571716308594 C 51.07783126831055 1.329581499099731 52.13331604003906 0.515112578868866 53.15669250488281 0.515112578868866 C 54.52689743041992 0.515112578868866 55.83929443359375 1.976240992546082 54.70391464233398 4.229261875152588 C 54.12787246704102 5.36762523651123 53.30314254760742 5.935417652130127 52.57590866088867 5.935327053070068 Z"/>
    </g>
    <g id="Path_20" data-name="Path 20" class="cls-2" transform="translate(-21.947 -1.836)">
      <path class="cls-3" d="M33.977,5.054c-.062-3.936-4.68-3.161-3.564.434C31.343,8.494,34.039,8,33.977,5.054Z"/>
      <path class="cls-4" d="M 32.38264465332031 7.516113758087158 C 31.64628219604492 7.516050338745117 30.84170913696289 6.874524593353271 30.41294860839844 5.488184928894043 C 29.81079483032227 3.547917366027832 30.87875366210938 2.429207563400269 31.99918937683105 2.429207563400269 C 32.95465469360352 2.429207563400269 33.94829559326172 3.242828130722046 33.9768180847168 5.054325103759766 C 34.01021575927734 6.640649318695068 33.24296569824219 7.516188144683838 32.38264465332031 7.516113758087158 Z"/>
    </g>
    <g id="Path_22" data-name="Path 22" class="cls-2" transform="translate(-8.89 -7.368)">
      <path class="cls-3" d="M15.622,11.671c-1.426-2.7-4.927-.434-2.944,1.89C15.064,16.319,17.078,14.46,15.622,11.671Z"/>
      <path class="cls-4" d="M 13.84180927276611 10.44504833221436 C 14.48164653778076 10.44509601593018 15.16036605834961 10.79836559295654 15.62159538269043 11.67069816589355 C 16.57327270507813 13.49305629730225 16.04331207275391 14.91841983795166 14.89589977264404 14.91841983795166 C 14.28719902038574 14.91841983795166 13.5046443939209 14.51712322235107 12.67752552032471 13.56110763549805 C 11.33586883544922 11.98884201049805 12.50407791137695 10.44494724273682 13.84180927276611 10.44504833221436 Z"/>
    </g>
    <g id="Path_24" data-name="Path 24" class="cls-2" transform="translate(-0.47 -16.954)">
      <path class="cls-3" d="M2.99,24.7C.851,23.271-.822,26.463,1.843,27.455,4.415,28.415,5.407,26.277,2.99,24.7Z"/>
      <path class="cls-4" d="M 1.915842056274414 24.33578872680664 C 2.244602203369141 24.33585357666016 2.610024452209473 24.44338226318359 2.989818096160889 24.69657707214355 C 4.989972114562988 26.00436782836914 4.656237602233887 27.69400024414063 3.024222373962402 27.69400024414063 C 2.683903217315674 27.69400024414063 2.287000179290771 27.62048149108887 1.843178272247314 27.4547176361084 C -0.3486166000366211 26.63916397094727 0.3936042785644531 24.33549308776855 1.915842056274414 24.33578872680664 Z"/>
    </g>
    <g id="Path_16" data-name="Path 16" class="cls-2" transform="translate(-51.91 -5.086)">
      <path class="cls-3" d="M75.049,11.426C79.7,7.769,73.654,2.408,71.33,8.947,70.493,11.333,72.229,13.627,75.049,11.426Z"/>
      <path class="cls-4" d="M 73.125732421875 10.26707458496094 C 73.27841949462891 10.20900726318359 73.51244354248047 10.08776187896729 73.81485748291016 9.852320671081543 C 74.53536987304688 9.284655570983887 74.88242340087891 8.642228126525879 74.72073364257813 8.175180435180664 C 74.65261077880859 7.978390216827393 74.50965881347656 7.869550228118896 74.43690490722656 7.869550228118896 C 74.24874114990234 7.869550228118896 73.68045806884766 8.30860424041748 73.21604919433594 9.612594604492188 C 73.12029266357422 9.887476921081543 73.10877227783203 10.11665534973145 73.125732421875 10.26707458496094 M 72.93987274169922 12.31439876556396 C 71.44975280761719 12.31421375274658 70.73133850097656 10.65441799163818 71.33003997802734 8.947020530700684 C 72.12347412109375 6.714824676513672 73.34999084472656 5.86954927444458 74.43689727783203 5.86954927444458 C 76.53395080566406 5.86954927444458 78.11052703857422 9.017727851867676 75.04887390136719 11.42623996734619 C 74.24658966064453 12.05219173431396 73.53234100341797 12.31447219848633 72.93987274169922 12.31439876556396 Z"/>
    </g>
  </g>
</svg>
